<svg xmlns="http://www.w3.org/2000/svg" xmlns:xlink="http://www.w3.org/1999/xlink" width="1700" height="1100" viewBox="0 0 1700 1100">
  <defs>
    <clipPath id="clip-path">
      <rect id="Rechteck_3" data-name="Rechteck 3" width="1422" height="343" transform="translate(-0.252 0.427)" fill="none"/>
    </clipPath>
    <clipPath id="clip-connect-signage">
      <rect width="1700" height="1100"/>
    </clipPath>
  </defs>
  <g id="connect-signage" clip-path="url(#clip-connect-signage)">
    <rect width="1700" height="1100" fill="#fff"/>
    <g id="Gruppe_4" data-name="Gruppe 4" transform="translate(139.252 378.573)">
      <g id="Gruppe_3" data-name="Gruppe 3" clip-path="url(#clip-path)">
        <path id="Pfad_6" data-name="Pfad 6" d="M393.012,184.358h-96.8q-17.026,0-28.945-11.288t-11.917-28.28V98.912q0-16.994,11.917-28.284T296.207,59.34h96.8V88.527h-96.8q-11.676,0-11.675,10.421v45.8q0,10.422,11.675,10.423h96.8Z" transform="translate(164.762 38.289)" fill="#01252d"/>
        <path id="Pfad_7" data-name="Pfad 7" d="M501.59,144.789q0,17-11.918,28.28t-28.943,11.288H387.274q-17.028,0-28.945-11.288t-11.917-28.28V98.91q0-16.994,11.917-28.284T387.274,59.34h73.454q17.021,0,28.943,11.286T501.59,98.91ZM472.4,144.75v-45.8q0-10.419-11.675-10.421H387.274q-11.676,0-11.676,10.421v45.8q0,10.422,11.676,10.421h73.454q11.676,0,11.675-10.421" transform="translate(223.523 38.289)" fill="#01252d"/>
        <path id="Pfad_8" data-name="Pfad 8" d="M581.652,184.357H552.464L477.307,100.2v84.155H448.122V59.34h29.185l75.157,83.669V59.34h29.188Z" transform="translate(289.151 38.289)" fill="#01252d"/>
        <path id="Pfad_9" data-name="Pfad 9" d="M645.092,184.357H615.905L540.749,100.2v84.155H511.564V59.34h29.185l75.157,83.669V59.34h29.187Z" transform="translate(330.087 38.289)" fill="#01252d"/>
        <path id="Pfad_10" data-name="Pfad 10" d="M733.645,88.526H629.3v18.728h97.534v29.188H629.3v18.73H733.4v29.185H600.116V59.34H733.645Z" transform="translate(387.225 38.289)" fill="#01252d"/>
        <path id="Pfad_11" data-name="Pfad 11" d="M826.334,184.358H729.527q-17.026,0-28.942-11.288t-11.917-28.28V98.912q0-16.994,11.917-28.284T729.527,59.34h96.807V88.527H729.527q-11.673,0-11.671,10.421v45.8q0,10.422,11.671,10.423h96.807Z" transform="translate(444.364 38.289)" fill="#01252d"/>
        <path id="Pfad_12" data-name="Pfad 12" d="M919.708,88.526H863.28v95.831H834.093V88.526H777.664V59.34H919.708Z" transform="translate(501.788 38.289)" fill="#01252d"/>
        <path id="Pfad_13" data-name="Pfad 13" d="M457.011,216.746a29.706,29.706,0,0,1-7.017,19.909,24.286,24.286,0,0,1-19.072,8.606H351.04V223.673h79.882q4.5,0,4.5-6.927t-4.5-6.927h-58.11a24.256,24.256,0,0,1-19.072-8.636,28.718,28.718,0,0,1-7.2-19.791,29.629,29.629,0,0,1,7.376-20.151,23.946,23.946,0,0,1,18.892-8.455h79.882v21.587H372.639q-4.509,0-4.506,7.019,0,6.839,4.506,6.836h58.23a24.366,24.366,0,0,1,19.111,8.608A29.681,29.681,0,0,1,457.011,216.746Z" transform="translate(223.608 98.586)" fill="#01252d"/>
        <rect id="Rechteck_2" data-name="Rechteck 2" width="21.589" height="92.476" transform="translate(689.612 251.371)" fill="#01252d"/>
        <path id="Pfad_14" data-name="Pfad 14" d="M539.575,245.262H467.969a29.987,29.987,0,0,1-21.41-8.35,27.6,27.6,0,0,1-8.815-20.919V182.056a27.612,27.612,0,0,1,8.815-20.921,29.988,29.988,0,0,1,21.41-8.348h71.606v21.587H467.969q-8.638,0-8.636,7.71v33.881q0,7.707,8.636,7.708h50.016V209.82H488.658V188.229h50.917Z" transform="translate(282.455 98.586)" fill="#01252d"/>
        <path id="Pfad_15" data-name="Pfad 15" d="M603.877,245.262H582.288l-55.593-62.25v62.25H505.106V152.786h21.589l55.593,61.891V152.786h21.589Z" transform="translate(325.92 98.585)" fill="#01252d"/>
        <path id="Pfad_16" data-name="Pfad 16" d="M684.133,245.262H662.544V215.936H605.69V194.347h56.853V181.394q0-7.019-4.679-7.019h-61.17q-4.5,0-4.5,7v63.885H570.607V181.338a29.764,29.764,0,0,1,7.287-20.113,23.7,23.7,0,0,1,18.8-8.438h61.17q11.7,0,18.983,8.438a29.77,29.77,0,0,1,7.285,20.113Z" transform="translate(368.184 98.585)" fill="#01252d"/>
        <path id="Pfad_17" data-name="Pfad 17" d="M746.908,245.262H675.3a29.986,29.986,0,0,1-21.408-8.35,27.6,27.6,0,0,1-8.817-20.919V182.056a27.608,27.608,0,0,1,8.817-20.921,29.984,29.984,0,0,1,21.408-8.348h71.606v21.587H675.3q-8.635,0-8.636,7.71v33.881q0,7.707,8.636,7.708h50.017V209.82H695.992V188.229h50.916Z" transform="translate(416.236 98.586)" fill="#01252d"/>
        <path id="Pfad_18" data-name="Pfad 18" d="M811.211,174.375H734.029v13.853h72.144v21.591H734.029v13.855h77v21.587H712.44V152.786h98.771Z" transform="translate(459.702 98.586)" fill="#01252d"/>
        <path id="Pfad_19" data-name="Pfad 19" d="M51.05,172.149c0,66.086,53.3,119.657,119.207,120.648H287.124a23.274,23.274,0,0,0,0-46.547H174.13a74.325,74.325,0,0,1,0-148.65H378.691l-31.872,51.05H174.13a23.274,23.274,0,0,0,0,46.547H287.124a74.325,74.325,0,0,1,0,148.65H172.148C77.251,343.848,0,267.047,0,172.149S77.251,0,172.148,0H439.555L407.682,51.05H172.148A121.193,121.193,0,0,0,51.05,172.149Z" transform="translate(0)" fill="#0e728c"/>
      </g>
    </g>
  </g>
</svg>
